<svg width="60" height="60" viewBox="0 0 60 60" fill="none" xmlns="http://www.w3.org/2000/svg">
<rect width="60" height="60" rx="10" fill="#303030"/>
<path d="M22.1375 26.4166H28.3042M25.2198 23.3333V29.4999" stroke="white" stroke-width="1.5" stroke-linecap="round" stroke-linejoin="round"/>
<path d="M25.694 36.3673C25.694 38.5346 23.9803 40.2916 21.8664 40.2916C19.7525 40.2916 18.0388 38.5346 18.0388 36.3673M25.694 36.3673C25.694 34.2 23.9803 32.4431 21.8664 32.4431C19.7525 32.4431 18.0388 34.2 18.0388 36.3673M25.694 36.3673H34.306M18.0388 36.3673H16.125V20.2499C16.125 19.3985 16.8152 18.7083 17.6667 18.7083H32.7644C33.6158 18.7083 34.306 19.3985 34.306 20.2499V23.6136M42.9181 36.3673C42.9181 38.5346 41.2044 40.2916 39.0905 40.2916C36.9766 40.2916 35.2629 38.5346 35.2629 36.3673M42.9181 36.3673C42.9181 34.2 41.2044 32.4431 39.0905 32.4431C36.9766 32.4431 35.2629 34.2 35.2629 36.3673M42.9181 36.3673H43.875V28.5189L39.998 24.544C39.4177 23.949 38.6219 23.6136 37.7908 23.6136H34.306M35.2629 36.3673H34.306M34.306 36.3673V23.6136" stroke="white" stroke-width="1.5" stroke-linecap="round" stroke-linejoin="round"/>
</svg>
