<svg width="60" height="60" viewBox="0 0 60 60" fill="none" xmlns="http://www.w3.org/2000/svg">
<rect width="60" height="60" rx="10" fill="#303030"/>
<path d="M42.327 27.3742V40.2917C42.327 41.9945 40.9473 43.375 39.2452 43.375H20.7547C19.0527 43.375 17.6729 41.9945 17.6729 40.2917V27.3742M23.066 24.4896L23.8365 15.625M23.066 24.4896C23.066 28.9632 30 28.9632 30 24.4896M23.066 24.4896C23.066 29.3856 15.1188 28.3757 16.2318 24.1068L17.8424 17.93C18.1964 16.5723 19.4219 15.625 20.8243 15.625H39.1756C40.578 15.625 41.8036 16.5723 42.1576 17.93L43.7681 24.1068C44.8811 28.3757 36.9339 29.3856 36.9339 24.4896M30 24.4896V15.625M30 24.4896C30 28.9632 36.9339 28.9632 36.9339 24.4896M36.9339 24.4896L36.1635 15.625" stroke="white" stroke-width="1.5" stroke-linecap="round" stroke-linejoin="round"/>
</svg>
