<svg width="60" height="60" viewBox="0 0 60 60" fill="none" xmlns="http://www.w3.org/2000/svg">
<rect width="60" height="60" rx="10" fill="#303030"/>
<path d="M27.0862 17.0133C27.165 16.2252 27.8282 15.625 28.6202 15.625H31.3798C32.1718 15.625 32.835 16.2252 32.9138 17.0133L32.965 17.5254C34.181 17.8255 35.326 18.306 36.3699 18.9368L36.7691 18.6101C37.3821 18.1086 38.2754 18.1532 38.8355 18.7132L40.7868 20.6646C41.3469 21.2246 41.3914 22.1179 40.8899 22.7309L40.5632 23.1302C41.194 24.1741 41.6745 25.319 41.9746 26.535L42.4867 26.5862C43.2748 26.665 43.875 27.3282 43.875 28.1202V30.8798C43.875 31.6718 43.2748 32.335 42.4867 32.4138L41.9746 32.465C41.6745 33.681 41.194 34.826 40.5632 35.8699L40.8898 36.2691C41.3914 36.8821 41.3468 37.7754 40.7868 38.3355L38.8354 40.2868C38.2754 40.8469 37.3821 40.8914 36.7691 40.3899L36.3698 40.0632C35.3259 40.6941 34.181 41.1745 32.965 41.4746L32.9138 41.9867C32.835 42.7748 32.1718 43.375 31.3798 43.375H28.6202C27.8282 43.375 27.165 42.7748 27.0862 41.9867L27.035 41.4746C25.819 41.1745 24.674 40.694 23.6302 40.0632L23.231 40.3898C22.618 40.8914 21.7247 40.8468 21.1646 40.2868L19.2133 38.3354C18.6532 37.7754 18.6087 36.8821 19.1102 36.2691L19.4368 35.8699C18.806 34.826 18.3255 33.681 18.0254 32.465L17.5133 32.4138C16.7252 32.335 16.125 31.6718 16.125 30.8798V28.1202C16.125 27.3282 16.7252 26.665 17.5133 26.5862L18.0254 26.535C18.3255 25.319 18.8059 24.1741 19.4368 23.1302L19.1102 22.731C18.6086 22.118 18.6532 21.2247 19.2132 20.6646L21.1646 18.7133C21.7246 18.1532 22.6179 18.1087 23.2309 18.6102L23.6301 18.9368C24.674 18.306 25.819 17.8255 27.035 17.5254L27.0862 17.0133Z" stroke="white" stroke-width="1.5" stroke-miterlimit="1" stroke-linecap="round" stroke-linejoin="round"/>
<path d="M33.8542 29.4999C33.8542 27.3713 32.1286 25.6458 30 25.6458C27.8714 25.6458 26.1458 27.3713 26.1458 29.4999C26.1458 31.6285 27.8714 33.3541 30 33.3541C32.1286 33.3541 33.8542 31.6285 33.8542 29.4999Z" stroke="white" stroke-width="1.5" stroke-miterlimit="1" stroke-linecap="round" stroke-linejoin="round"/>
</svg>
