<svg width="145" height="57" viewBox="0 0 145 57" fill="none" xmlns="http://www.w3.org/2000/svg">
<path d="M27.3364 48.8172C26.9059 48.8869 24.0132 19.2322 17.5169 18.7145C13.1126 18.3562 8.318 32.9695 6.87661 38.2454C6.23599 40.5848 5.01481 45.0743 6.05582 45.572C8.02772 46.5177 16.3457 32.3424 16.6961 32.5514C17.1465 32.8202 5.01481 58.2741 1.15108 56.9601C-3.78368 55.2778 8.16785 -0.418193 16.7061 -9.93437e-05C24.6137 0.388129 27.8869 48.7276 27.3464 48.8172H27.3364Z" fill="white"/>
<path d="M16.3658 36.135C17.8142 36.135 18.9883 34.9673 18.9883 33.5268C18.9883 32.0864 17.8142 30.9187 16.3658 30.9187C14.9174 30.9187 13.7433 32.0864 13.7433 33.5268C13.7433 34.9673 14.9174 36.135 16.3658 36.135Z" fill="#FBB03B"/>
<path d="M39.0677 33.487C39.0677 31.1079 41.2999 29.9532 46.8052 29.5251C46.7352 28.0917 46.0345 26.8672 43.9825 26.8672C42.6012 26.8672 41.2398 27.5242 40.2589 28.1315L39.5382 26.917C40.6293 26.2202 42.431 25.394 44.2928 25.394C47.2056 25.394 48.627 27.1161 48.627 29.7541V36.2445H47.1155L46.9654 34.8011H46.8953C45.7342 35.7169 44.2027 36.5033 42.7113 36.5033C40.7193 36.5033 39.0778 35.3884 39.0778 33.497L39.0677 33.487ZM46.8052 33.4671V30.7197C42.2508 31.0681 40.8695 31.964 40.8695 33.3576C40.8695 34.5522 41.9605 35.04 43.1917 35.04C44.4229 35.04 45.584 34.4726 46.8052 33.4671Z" fill="white"/>
<path d="M55.2534 32.1133V27.1061H52.2305V25.7523L55.3235 25.6428L55.5637 22.2483H57.0751V25.6428H62.2902V27.1061H57.0751V32.1432C57.0751 34.0345 57.7058 35.02 59.7677 35.02C60.7587 35.02 61.5395 34.821 62.3102 34.5422L62.7006 35.8662C61.7396 36.2146 60.7087 36.4933 59.3674 36.4933C56.2544 36.4933 55.2534 34.7314 55.2534 32.1133Z" fill="white"/>
<path d="M68.8766 32.1133V27.1061H65.8536V25.7523L68.9466 25.6428L69.1869 22.2483H70.6983V25.6428H75.9133V27.1061H70.6983V32.1432C70.6983 34.0345 71.3289 35.02 73.3909 35.02C74.3819 35.02 75.1626 34.821 75.9334 34.5422L76.3338 35.8662C75.3728 36.2146 74.3418 36.4933 73.0005 36.4933C69.8875 36.4933 68.8866 34.7314 68.8866 32.1133H68.8766Z" fill="white"/>
<path d="M79.4567 30.9586C79.4567 27.4048 81.909 25.384 84.7117 25.384C87.5144 25.384 89.9668 27.4048 89.9668 30.9586C89.9668 34.5124 87.5144 36.4933 84.7117 36.4933C81.909 36.4933 79.4567 34.4726 79.4567 30.9586ZM88.105 30.9586C88.105 28.5197 86.7437 26.8872 84.7117 26.8872C82.6798 26.8872 81.3185 28.5197 81.3185 30.9586C81.3185 33.3975 82.6798 34.9902 84.7117 34.9902C86.7437 34.9902 88.105 33.3776 88.105 30.9586Z" fill="white"/>
<path d="M93.0798 30.9586C93.0798 27.4048 95.5322 25.384 98.3349 25.384C101.138 25.384 103.59 27.4048 103.59 30.9586C103.59 34.5124 101.138 36.4933 98.3349 36.4933C95.5322 36.4933 93.0798 34.4726 93.0798 30.9586ZM101.728 30.9586C101.728 28.5197 100.367 26.8872 98.3349 26.8872C96.3029 26.8872 94.9416 28.5197 94.9416 30.9586C94.9416 33.3975 96.3029 34.9902 98.3349 34.9902C100.367 34.9902 101.728 33.3776 101.728 30.9586Z" fill="white"/>
<path d="M106.483 25.6428H107.934L108.084 27.0365H108.124C108.675 26.0609 109.326 25.384 110.557 25.384C111.608 25.384 112.268 25.9912 112.569 27.2157C113.179 26.0808 113.84 25.384 115.071 25.384C116.563 25.384 117.433 26.5387 117.433 28.6491V36.2345H115.642V28.7885C115.642 27.5641 115.291 26.9369 114.501 26.9369C113.76 26.9369 113.359 27.4844 112.789 28.5695V36.2345H111.127V28.7885C111.127 27.5641 110.817 26.9369 110.036 26.9369C109.296 26.9369 108.805 27.4844 108.285 28.5695V36.2345H106.493V25.6428H106.483Z" fill="white"/>
<path d="M128.304 21.9397H130.406L135.251 36.2345H133.279L130.806 28.2609C130.306 26.6681 129.815 25.1053 129.385 23.4429H129.295C128.834 25.0953 128.374 26.6681 127.873 28.2609L125.351 36.2345H123.469L128.314 21.9397H128.304ZM126.022 30.4111H132.618V31.8943H126.022V30.4111Z" fill="white"/>
<path d="M142.838 27.1062H137.903V25.6428H144.65V36.2345H142.828V27.1062H142.838Z" fill="white"/>
<path d="M142.117 22.0293C142.117 21.2031 142.728 20.6357 143.569 20.6357C144.409 20.6357 145.01 21.2031 145.01 22.0293C145.01 22.8555 144.399 23.423 143.569 23.423C142.738 23.423 142.117 22.8754 142.117 22.0293Z" fill="white"/>
</svg>
