<svg width="145" height="57" viewBox="0 0 145 57" fill="none" xmlns="http://www.w3.org/2000/svg">
<g clip-path="url(#clip0_59_576)">
<mask id="mask0_59_576" style="mask-type:luminance" maskUnits="userSpaceOnUse" x="0" y="0" width="145" height="57">
<path d="M145 0H0V57H145V0Z" fill="white"/>
</mask>
<g mask="url(#mask0_59_576)">
<path d="M27.3364 48.8173C26.9059 48.887 24.0132 19.2323 17.5169 18.7146C13.1126 18.3563 8.318 32.9696 6.87661 38.2455C6.23599 40.5849 5.01481 45.0744 6.05582 45.5721C8.02772 46.5178 16.3457 32.3425 16.6961 32.5515C17.1465 32.8203 5.01481 58.2742 1.15108 56.9602C-3.78368 55.2779 8.16785 -0.418101 16.7061 -7.79098e-06C24.6137 0.388221 27.8869 48.7277 27.3464 48.8173H27.3364Z" fill="#0A44E6"/>
<path d="M16.3658 36.1352C17.8142 36.1352 18.9883 34.9675 18.9883 33.527C18.9883 32.0866 17.8142 30.9189 16.3658 30.9189C14.9174 30.9189 13.7433 32.0866 13.7433 33.527C13.7433 34.9675 14.9174 36.1352 16.3658 36.1352Z" fill="#FBB03B"/>
<path d="M39.0677 33.4872C39.0677 31.1081 41.2999 29.9534 46.8052 29.5253C46.7352 28.0919 46.0345 26.8674 43.9825 26.8674C42.6012 26.8674 41.2398 27.5244 40.2589 28.1317L39.5382 26.9172C40.6293 26.2204 42.431 25.3942 44.2928 25.3942C47.2056 25.3942 48.627 27.1163 48.627 29.7543V36.2447H47.1155L46.9654 34.8013H46.8953C45.7342 35.7171 44.2027 36.5035 42.7113 36.5035C40.7193 36.5035 39.0778 35.3886 39.0778 33.4972L39.0677 33.4872ZM46.8052 33.4673V30.7199C42.2508 31.0683 40.8695 31.9642 40.8695 33.3578C40.8695 34.5524 41.9605 35.0402 43.1917 35.0402C44.4229 35.0402 45.584 34.4728 46.8052 33.4673Z" fill="black"/>
<path d="M55.2534 32.1135V27.1063H52.2305V25.7525L55.3235 25.643L55.5637 22.2485H57.0751V25.643H62.2902V27.1063H57.0751V32.1434C57.0751 34.0347 57.7058 35.0202 59.7677 35.0202C60.7587 35.0202 61.5395 34.8212 62.3102 34.5424L62.7006 35.8664C61.7396 36.2148 60.7087 36.4935 59.3674 36.4935C56.2544 36.4935 55.2534 34.7316 55.2534 32.1135Z" fill="black"/>
<path d="M68.8766 32.1135V27.1063H65.8536V25.7525L68.9466 25.643L69.1869 22.2485H70.6983V25.643H75.9133V27.1063H70.6983V32.1434C70.6983 34.0347 71.3289 35.0202 73.3909 35.0202C74.3819 35.0202 75.1626 34.8212 75.9334 34.5424L76.3338 35.8664C75.3728 36.2148 74.3418 36.4935 73.0005 36.4935C69.8875 36.4935 68.8866 34.7316 68.8866 32.1135H68.8766Z" fill="black"/>
<path d="M79.4567 30.9588C79.4567 27.405 81.909 25.3842 84.7117 25.3842C87.5144 25.3842 89.9668 27.405 89.9668 30.9588C89.9668 34.5126 87.5144 36.4935 84.7117 36.4935C81.909 36.4935 79.4567 34.4728 79.4567 30.9588ZM88.105 30.9588C88.105 28.5199 86.7437 26.8874 84.7117 26.8874C82.6798 26.8874 81.3185 28.5199 81.3185 30.9588C81.3185 33.3977 82.6798 34.9904 84.7117 34.9904C86.7437 34.9904 88.105 33.3778 88.105 30.9588Z" fill="black"/>
<path d="M93.0798 30.9588C93.0798 27.405 95.5322 25.3842 98.3349 25.3842C101.138 25.3842 103.59 27.405 103.59 30.9588C103.59 34.5126 101.138 36.4935 98.3349 36.4935C95.5322 36.4935 93.0798 34.4728 93.0798 30.9588ZM101.728 30.9588C101.728 28.5199 100.367 26.8874 98.3349 26.8874C96.3029 26.8874 94.9416 28.5199 94.9416 30.9588C94.9416 33.3977 96.3029 34.9904 98.3349 34.9904C100.367 34.9904 101.728 33.3778 101.728 30.9588Z" fill="black"/>
<path d="M106.483 25.643H107.934L108.084 27.0367H108.124C108.675 26.0611 109.326 25.3842 110.557 25.3842C111.608 25.3842 112.268 25.9914 112.569 27.2159C113.179 26.081 113.84 25.3842 115.071 25.3842C116.563 25.3842 117.433 26.5389 117.433 28.6493V36.2347H115.642V28.7887C115.642 27.5643 115.291 26.9371 114.501 26.9371C113.76 26.9371 113.359 27.4846 112.789 28.5697V36.2347H111.127V28.7887C111.127 27.5643 110.817 26.9371 110.036 26.9371C109.296 26.9371 108.805 27.4846 108.285 28.5697V36.2347H106.493V25.643H106.483Z" fill="black"/>
<path d="M128.304 21.9399H130.406L135.251 36.2347H133.279L130.806 28.2611C130.306 26.6683 129.815 25.1055 129.385 23.4431H129.295C128.834 25.0955 128.374 26.6683 127.873 28.2611L125.351 36.2347H123.469L128.314 21.9399H128.304ZM126.022 30.4113H132.618V31.8945H126.022V30.4113Z" fill="black"/>
<path d="M142.838 27.1064H137.903V25.643H144.65V36.2347H142.828V27.1064H142.838Z" fill="black"/>
<path d="M142.117 22.0295C142.117 21.2033 142.728 20.6359 143.569 20.6359C144.409 20.6359 145.01 21.2033 145.01 22.0295C145.01 22.8557 144.399 23.4232 143.569 23.4232C142.738 23.4232 142.117 22.8756 142.117 22.0295Z" fill="#0A44E6"/>
</g>
</g>
<defs>
<clipPath id="clip0_59_576">
<rect width="145" height="57" fill="white"/>
</clipPath>
</defs>
</svg>
