<svg width="193" height="109" viewBox="0 0 193 109" fill="none" xmlns="http://www.w3.org/2000/svg">
<g clip-path="url(#clip0_59_641)">
<path d="M85.3993 59.6415C82.0889 58.5655 79.0111 56.9856 76.289 55.0107C84.9479 55.0107 93.5521 48.4868 93.5521 39.8654C93.5521 32.9738 87.9436 27.3896 81.0083 27.3896C75.4682 27.3896 70.9814 31.8569 70.9814 37.373C70.9814 41.7858 74.5791 45.3679 79.0111 45.3679C82.554 45.3679 85.4267 42.5077 85.4267 38.9665C85.4267 36.1472 83.1286 33.859 80.297 33.859C78.0262 33.859 76.1932 35.6977 76.1932 37.945C76.1932 39.7565 77.6706 41.2138 79.4762 41.2138C80.9262 41.2138 82.1026 40.0425 82.1026 38.5988C82.1026 38.2583 82.0205 37.945 81.8838 37.659C82.4309 38.1493 82.7866 38.8712 82.7866 39.6611C82.7866 41.5134 81.2682 43.0252 79.4078 43.0252C77.0687 43.0252 75.1809 41.1457 75.1809 38.8167C75.1809 35.9156 77.5474 33.573 80.4611 33.573C84.0998 33.573 87.0545 36.5149 87.0545 40.1378C87.0545 44.6732 83.3611 48.337 78.8196 48.337C73.1291 48.337 68.5192 43.7471 68.5192 38.0812C68.5192 30.9989 74.2781 25.2649 81.3913 25.2649C90.2828 25.2649 97.4917 32.4426 97.4917 41.2955C97.4917 49.5083 92.5262 56.5634 85.413 59.6551L85.3993 59.6415Z" fill="#17996A"/>
<path d="M128.024 30.6448C128.024 45.1636 117.409 57.3261 103.155 60.4859C114.208 49.413 119.967 39.5794 122.867 31.639C126.601 21.3832 118.886 10.569 107.929 10.569C115.89 32.1157 106.848 51.1155 100.323 60.9899C98.846 61.1942 97.3413 61.2895 95.7955 61.2895C93.2238 61.2895 90.7342 61.0035 88.3267 60.4587C97.3686 57.5985 103.948 49.304 104.14 39.2934C104.386 26.5316 94.0446 16.1123 81.2545 16.1804C74.5654 16.2213 68.5465 19.1632 64.3881 23.8076C67.6848 10.1741 80.5022 0 95.8229 0C113.606 0 128.037 13.7152 128.037 30.6448H128.024Z" fill="#17996A"/>
<path d="M14.6915 78.8592C15.9636 79.5265 16.9622 80.5344 17.6872 81.8828C18.4122 83.2312 18.7816 84.8655 18.7816 86.7996V99.0983H15.3344V87.2899C15.3344 85.206 14.8146 83.6125 13.7613 82.5093C12.7217 81.4061 11.2853 80.8477 9.47969 80.8477C7.67404 80.8477 6.183 81.4197 5.10235 82.5638C4.02169 83.7078 3.47452 85.3695 3.47452 87.5487V99.0847H0V70.9052H3.47452V81.1882C4.15848 80.1258 5.11602 79.295 6.3198 78.7093C7.53725 78.1237 8.89149 77.8377 10.3962 77.8377C11.983 77.8377 13.4056 78.1782 14.6778 78.8455L14.6915 78.8592Z" fill="black"/>
<path d="M42.5287 78.2327L29.9027 108.918H26.3051L30.4362 98.8668L21.9825 78.2327H25.84L32.4197 95.135L38.9173 78.2327H42.515H42.5287Z" fill="black"/>
<path d="M52.5692 79.0906C53.9371 78.2871 55.5239 77.8921 57.3296 77.8921C59.1352 77.8921 60.8862 78.3415 62.3909 79.2268C63.9093 80.1121 65.0993 81.3652 65.9611 82.9723C66.8229 84.5795 67.2607 86.459 67.2607 88.5837C67.2607 90.7084 66.8229 92.5743 65.9611 94.2223C65.0993 95.8703 63.8956 97.1506 62.3909 98.0632C60.8725 98.9757 59.1899 99.4388 57.3296 99.4388C55.4692 99.4388 53.9645 99.0438 52.6102 98.2402C51.2423 97.4366 50.2027 96.4424 49.4914 95.2575V109H46.0168V78.2326H49.4914V82.0734C50.1753 80.8748 51.2013 79.8806 52.5692 79.0906ZM62.7602 84.4841C62.1173 83.3128 61.2555 82.4275 60.1748 81.8146C59.0942 81.2017 57.9041 80.9021 56.6046 80.9021C55.305 80.9021 54.156 81.2153 53.0616 81.8282C51.981 82.4548 51.1055 83.3537 50.4626 84.525C49.806 85.7099 49.4914 87.0719 49.4914 88.6246C49.4914 90.1772 49.8197 91.5801 50.4626 92.7514C51.1192 93.9363 51.981 94.8352 53.0616 95.4481C54.1423 96.0747 55.3187 96.3879 56.6046 96.3879C57.8904 96.3879 59.0942 96.0747 60.1748 95.4481C61.2555 94.8216 62.1173 93.9227 62.7602 92.7514C63.4031 91.5665 63.7178 90.1772 63.7178 88.5837C63.7178 86.9902 63.4031 85.6418 62.7602 84.4705V84.4841Z" fill="black"/>
<path d="M90.8573 89.9593H74.114C74.2371 92.0159 74.9484 93.6231 76.2343 94.7808C77.5201 95.9384 79.0795 96.5105 80.9125 96.5105C82.4173 96.5105 83.6757 96.1564 84.6743 95.4617C85.6866 94.7671 86.3842 93.8274 86.7946 92.6697H90.5427C89.9819 94.6718 88.8602 96.3062 87.1776 97.5592C85.4951 98.8122 83.4022 99.4388 80.9125 99.4388C78.9291 99.4388 77.1508 98.9893 75.5777 98.104C74.0045 97.2187 72.7734 95.9521 71.8843 94.3177C70.9951 92.6833 70.5437 90.7901 70.5437 88.6246C70.5437 86.459 70.9814 84.5795 71.8432 82.9451C72.705 81.3243 73.9225 80.0713 75.4956 79.1996C77.0687 78.3279 78.8607 77.8921 80.9125 77.8921C82.9644 77.8921 84.6606 78.3279 86.1927 79.186C87.7248 80.044 88.9012 81.229 89.7356 82.7408C90.5701 84.2526 90.9804 85.9551 90.9804 87.8619C90.9804 88.5292 90.9394 89.2238 90.871 89.9593H90.8573ZM86.4937 83.735C85.9055 82.7816 85.1121 82.0598 84.0998 81.5695C83.0875 81.0791 81.9795 80.8204 80.7484 80.8204C78.9838 80.8204 77.4927 81.3788 76.2616 82.4956C75.0305 83.6124 74.3192 85.1651 74.1413 87.14H87.3691C87.3691 85.8189 87.0819 84.6884 86.4937 83.735Z" fill="black"/>
<path d="M101.664 78.8456C102.799 78.1918 104.181 77.8513 105.809 77.8513V81.4334H104.892C100.994 81.4334 99.0375 83.5444 99.0375 87.753V99.0984H95.563V78.2327H99.0375V81.624C99.6531 80.4255 100.529 79.4993 101.65 78.8456H101.664Z" fill="black"/>
<path d="M112.922 98.6216C111.65 98.0768 110.637 97.3141 109.899 96.3335C109.16 95.3528 108.75 94.236 108.681 92.9694H112.279C112.375 94.0045 112.867 94.8625 113.756 95.5163C114.632 96.17 115.795 96.5105 117.217 96.5105C118.544 96.5105 119.584 96.2245 120.35 95.6389C121.116 95.0532 121.499 94.3177 121.499 93.4324C121.499 92.5471 121.088 91.8389 120.281 91.3895C119.461 90.94 118.202 90.5042 116.492 90.0819C114.933 89.6733 113.674 89.2648 112.689 88.8425C111.704 88.4203 110.87 87.8074 110.159 86.9766C109.461 86.1458 109.105 85.0698 109.105 83.7215C109.105 82.6591 109.42 81.6785 110.063 80.7932C110.706 79.9079 111.609 79.1997 112.785 78.6821C113.962 78.1645 115.302 77.9058 116.807 77.9058C119.132 77.9058 121.006 78.4914 122.429 79.6627C123.852 80.834 124.618 82.4276 124.727 84.4569H121.253C121.17 83.3673 120.733 82.4957 119.939 81.8283C119.146 81.1609 118.065 80.834 116.711 80.834C115.466 80.834 114.468 81.1064 113.729 81.6376C112.99 82.1688 112.621 82.8634 112.621 83.7351C112.621 84.4161 112.84 84.9881 113.291 85.4239C113.743 85.8734 114.304 86.2275 114.974 86.4863C115.644 86.7587 116.588 87.0583 117.778 87.3852C119.283 87.7938 120.5 88.1888 121.444 88.5838C122.388 88.9787 123.195 89.5644 123.865 90.3543C124.536 91.1443 124.891 92.1658 124.919 93.4324C124.919 94.5765 124.604 95.598 123.961 96.5105C123.318 97.4231 122.429 98.1449 121.266 98.6625C120.103 99.18 118.777 99.4388 117.272 99.4388C115.671 99.4388 114.221 99.1664 112.949 98.6216H112.922Z" fill="black"/>
<path d="M146.203 80.153C147.79 81.6921 148.57 83.8985 148.57 86.7995V99.0983H145.123V87.2898C145.123 85.206 144.603 83.6125 143.55 82.5093C142.51 81.4061 141.074 80.8476 139.268 80.8476C137.462 80.8476 135.971 81.4197 134.891 82.5637C133.81 83.7078 133.263 85.3694 133.263 87.5486V99.0847H129.788V78.219H133.263V81.1881C133.947 80.1258 134.891 79.295 136.067 78.7093C137.257 78.1237 138.557 77.8376 139.993 77.8376C142.537 77.8376 144.603 78.6004 146.19 80.1394L146.203 80.153Z" fill="black"/>
<path d="M154.26 82.9723C155.122 81.3652 156.312 80.1121 157.831 79.2268C159.349 78.3415 161.032 77.8921 162.892 77.8921C164.752 77.8921 166.326 78.2871 167.666 79.077C169.02 79.867 170.019 80.8476 170.689 82.0462V78.2326H174.205V99.0983H170.689V95.2166C170.005 96.4288 168.979 97.4503 167.611 98.2402C166.243 99.0438 164.657 99.4388 162.851 99.4388C161.045 99.4388 159.308 98.9757 157.803 98.0632C156.299 97.1506 155.109 95.8703 154.247 94.2223C153.385 92.5743 152.947 90.6948 152.947 88.5837C152.947 86.4726 153.385 84.5795 154.247 82.9723H154.26ZM169.745 84.5114C169.102 83.34 168.241 82.4548 167.16 81.8282C166.079 81.2017 164.889 80.9021 163.59 80.9021C162.29 80.9021 161.1 81.2017 160.033 81.8146C158.966 82.4275 158.104 83.3128 157.475 84.4841C156.832 85.6554 156.518 87.0174 156.518 88.5973C156.518 90.1772 156.832 91.5801 157.475 92.765C158.118 93.9499 158.966 94.8489 160.033 95.4617C161.1 96.0883 162.29 96.4015 163.59 96.4015C164.889 96.4015 166.079 96.0883 167.16 95.4617C168.241 94.8352 169.102 93.9363 169.745 92.765C170.388 91.5801 170.703 90.2045 170.703 88.6382C170.703 87.0719 170.388 85.6963 169.745 84.525V84.5114Z" fill="black"/>
<path d="M180.237 74.1603C179.772 73.6972 179.553 73.1388 179.553 72.485C179.553 71.8313 179.786 71.2729 180.237 70.8098C180.702 70.3467 181.263 70.1288 181.92 70.1288C182.576 70.1288 183.096 70.3603 183.548 70.8098C183.999 71.2729 184.218 71.8313 184.218 72.485C184.218 73.1388 183.999 73.6972 183.548 74.1603C183.096 74.6233 182.563 74.8413 181.92 74.8413C181.277 74.8413 180.702 74.6097 180.237 74.1603ZM183.602 78.2326V99.0983H180.128V78.2326H183.602Z" fill="black"/>
<path d="M193 70.9187V99.0983H189.526V70.9187H193Z" fill="black"/>
</g>
<defs>
<clipPath id="clip0_59_641">
<rect width="193" height="109" fill="white"/>
</clipPath>
</defs>
</svg>
