<svg width="193" height="110" viewBox="0 0 193 110" fill="none" xmlns="http://www.w3.org/2000/svg">
<path d="M107.209 71.6641C108.246 73.9367 109.084 75.3372 109.269 75.6353C102.607 72.8234 92.6592 67.4191 84.3397 57.1762C83.3229 55.923 82.3712 54.6514 81.4882 53.362C84.6552 48.0812 88.716 43.0917 93.2308 39.8034C97.1656 36.9327 101.237 34.8916 105.194 33.45C113.794 30.3127 121.845 29.9969 126.751 30.1356C113.805 33.7399 104.612 44.2934 103.674 56.2113C103.506 58.3648 103.618 60.4059 103.926 62.3106C103.925 62.3144 103.928 62.3188 103.927 62.3225C104.519 65.9888 105.826 69.1551 107.209 71.6641Z" fill="#2E3192"/>
<path d="M100.036 37.5536C98.0178 49.1967 100.866 59.3154 104.324 66.6401C104.324 66.6439 104.328 66.6478 104.328 66.6517C106.053 70.3024 107.925 73.2586 109.423 75.3579C110.901 77.4303 112.013 78.6691 112.256 78.9315C105.027 77.3994 94 73.9069 83.6756 65.2662C82.4136 64.2088 81.2132 63.1205 80.0785 62.0014C57.6081 39.9424 59.4722 7.62957 59.7926 3.30731C59.7926 1.84468 60.9775 0.659917 62.4403 0.659917L132.503 0C130.6 0.636762 107.829 8.72172 101.071 32.965C100.638 34.5202 100.295 36.0485 100.036 37.5536Z" fill="#0246CC"/>
<path d="M0 109.469V95.9622H9.26299V97.1971H1.42805V109.469H0ZM1.27367 103.738V102.503H8.41389V103.738H1.27367Z" fill="black"/>
<path d="M31.5134 109.469V95.9622H32.9415V109.469H31.5134Z" fill="black"/>
<path d="M56.6393 109.469V95.9622H57.8164L67.1373 107.694H66.5198V95.9622H67.9285V109.469H66.7514L57.4498 97.7374H58.0673V109.469H56.6393Z" fill="black"/>
<path d="M95.1734 109.469L89.191 95.9622H90.7349L96.3313 108.678H95.4821L101.117 95.9622H102.564L96.5821 109.469H95.1734Z" fill="black"/>
<path d="M123.811 109.469V95.9622H125.239V109.469H123.811Z" fill="black"/>
<path d="M148.937 109.469V95.9622H158.2V97.1971H150.365V108.234H158.49V109.469H148.937ZM150.211 103.217V102.002H157.351V103.217H150.211Z" fill="black"/>
<path d="M186.587 109.585C184.862 109.585 183.508 109.091 182.516 108.099C181.524 107.107 181.03 105.641 181.03 103.7V95.9622H182.458V103.642C182.458 105.236 182.817 106.413 183.538 107.173C184.26 107.933 185.275 108.311 186.587 108.311C187.9 108.311 188.934 107.933 189.656 107.173C190.378 106.413 190.737 105.236 190.737 103.642V95.9622H192.126V103.7C192.126 105.641 191.636 107.107 190.652 108.099C189.667 109.091 188.313 109.585 186.587 109.585Z" fill="black"/>
</svg>
