<svg width="178" height="58" viewBox="0 0 178 58" fill="none" xmlns="http://www.w3.org/2000/svg">
<g clip-path="url(#clip0_59_622)">
<path d="M53.625 40.6804C52.4396 40.1539 51.5056 39.4133 50.832 38.4764C50.1584 37.5395 49.8082 36.4508 49.7812 35.2195H52.9515C53.0593 36.2813 53.4993 37.1736 54.2717 37.8964C55.044 38.6192 56.1756 38.985 57.6485 38.985C59.1213 38.985 60.1811 38.637 60.9893 37.9321C61.8066 37.2272 62.2107 36.3259 62.2107 35.2195C62.2107 34.3539 61.9682 33.6579 61.4923 33.1136C61.0163 32.5693 60.4146 32.1588 59.6961 31.8822C58.9776 31.5967 58.0077 31.3022 56.7863 30.9721C55.2865 30.5795 54.0831 30.1958 53.185 29.8032C52.2779 29.4195 51.5056 28.8038 50.8679 27.9739C50.2213 27.1441 49.907 26.0198 49.907 24.6188C49.907 23.3875 50.2213 22.2988 50.85 21.3441C51.4786 20.3893 52.3677 19.6576 53.5083 19.1401C54.6489 18.6225 55.9601 18.3638 57.4419 18.3638C59.5793 18.3638 61.3216 18.8902 62.6777 19.9521C64.0338 21.0139 64.8062 22.4148 64.9858 24.1638H61.7168C61.609 23.2982 61.151 22.5398 60.3427 21.8795C59.5344 21.2192 58.4657 20.889 57.1455 20.889C55.9062 20.889 54.8913 21.2102 54.11 21.8438C53.3287 22.4773 52.9335 23.3696 52.9335 24.5207C52.9335 25.3416 53.167 26.0108 53.634 26.5284C54.101 27.0459 54.6758 27.4385 55.3673 27.7152C56.0499 27.9828 57.0108 28.2952 58.2592 28.6432C59.759 29.0536 60.9714 29.4552 61.8874 29.8567C62.8035 30.2582 63.5848 30.8739 64.2404 31.7038C64.896 32.5336 65.2193 33.6668 65.2193 35.0945C65.2193 36.201 64.9229 37.2361 64.3392 38.2087C63.7554 39.1813 62.8843 39.9755 61.7258 40.5733C60.5762 41.1801 59.2111 41.4835 57.6485 41.4835C56.0858 41.4835 54.8015 41.2158 53.6161 40.6893L53.625 40.6804Z" fill="#141414"/>
<path d="M69.5992 27.5101C70.3446 26.1359 71.3594 25.0741 72.6526 24.3156C73.9459 23.5571 75.3918 23.1824 76.9814 23.1824C78.571 23.1824 79.9092 23.5215 81.0587 24.1907C82.2082 24.8599 83.0704 25.7076 83.6362 26.7159V23.4679H86.6448V41.2427H83.6362V37.9322C83.0524 38.9673 82.1723 39.8239 81.0048 40.511C79.8373 41.1891 78.4902 41.5282 76.9365 41.5282C75.3828 41.5282 73.91 41.1356 72.6257 40.3593C71.3414 39.583 70.3266 38.4944 69.5902 37.0845C68.8538 35.6836 68.4766 34.0774 68.4766 32.2839C68.4766 30.4904 68.8448 28.8664 69.5902 27.5011L69.5992 27.5101ZM82.8189 28.8218C82.2711 27.8224 81.5347 27.0639 80.6097 26.5285C79.6846 26.0021 78.6698 25.7344 77.5562 25.7344C76.4426 25.7344 75.4367 25.9931 74.5207 26.5107C73.6046 27.0282 72.8772 27.7867 72.3293 28.7771C71.7905 29.7765 71.5121 30.9455 71.5121 32.2839C71.5121 33.6224 71.7815 34.827 72.3293 35.8353C72.8772 36.8436 73.6046 37.611 74.5207 38.1375C75.4367 38.6639 76.4426 38.9316 77.5562 38.9316C78.6698 38.9316 79.6846 38.6639 80.6097 38.1375C81.5347 37.611 82.2711 36.8436 82.8189 35.8353C83.3578 34.827 83.6362 33.6581 83.6362 32.3196C83.6362 30.9811 83.3668 29.8122 82.8189 28.8128V28.8218Z" fill="#141414"/>
<path d="M103.12 24.1907C104.288 24.8599 105.15 25.7076 105.715 26.7159V23.4679H108.724V41.6353C108.724 43.2593 108.374 44.7048 107.673 45.963C106.973 47.23 105.985 48.2205 104.683 48.9343C103.389 49.6482 101.881 50.0051 100.156 50.0051C97.8034 50.0051 95.8456 49.4519 94.2829 48.3543C92.7113 47.2479 91.7862 45.7488 91.5078 43.8482H94.4446C94.7679 44.9279 95.4414 45.8023 96.4652 46.4627C97.4891 47.123 98.7194 47.4531 100.156 47.4531C101.791 47.4531 103.12 46.9445 104.153 45.9273C105.186 44.91 105.707 43.4823 105.707 41.6442V37.9143C105.123 38.9583 104.252 39.815 103.093 40.511C101.944 41.207 100.587 41.555 99.0427 41.555C97.498 41.555 96.0072 41.1623 94.714 40.386C93.4207 39.6097 92.4059 38.5211 91.6605 37.1113C90.9241 35.7103 90.5469 34.1042 90.5469 32.3107C90.5469 30.5171 90.9151 28.8931 91.6605 27.5279C92.4059 26.1537 93.4207 25.0919 94.714 24.3334C96.0072 23.575 97.4531 23.2002 99.0427 23.2002C100.632 23.2002 101.944 23.5393 103.111 24.2085L103.12 24.1907ZM104.898 28.8307C104.35 27.8313 103.614 27.0728 102.689 26.5374C101.764 26.011 100.749 25.7433 99.6355 25.7433C98.5219 25.7433 97.516 26.002 96.6 26.5196C95.6839 27.0371 94.9565 27.7956 94.4086 28.786C93.8698 29.7854 93.5914 30.9543 93.5914 32.2928C93.5914 33.6313 93.8608 34.8359 94.4086 35.8442C94.9565 36.8525 95.6839 37.6199 96.6 38.1463C97.516 38.6728 98.5219 38.9405 99.6355 38.9405C100.749 38.9405 101.764 38.6728 102.689 38.1463C103.614 37.6199 104.35 36.8525 104.898 35.8442C105.437 34.8359 105.715 33.667 105.715 32.3285C105.715 30.99 105.446 29.8211 104.898 28.8217V28.8307Z" fill="#141414"/>
<path d="M129.974 33.4618H115.676C115.784 35.2107 116.386 36.5848 117.49 37.5664C118.586 38.5479 119.924 39.0387 121.487 39.0387C122.771 39.0387 123.84 38.7442 124.702 38.1464C125.564 37.5485 126.166 36.7544 126.516 35.7639H129.713C129.237 37.4771 128.276 38.8602 126.839 39.931C125.402 41.0018 123.615 41.5371 121.487 41.5371C119.789 41.5371 118.272 41.1535 116.933 40.4039C115.595 39.6454 114.545 38.5658 113.781 37.1738C113.018 35.7728 112.641 34.1578 112.641 32.3285C112.641 30.4993 113.009 28.8753 113.754 27.4922C114.5 26.1091 115.532 25.0384 116.871 24.2978C118.209 23.5482 119.744 23.1824 121.487 23.1824C123.229 23.1824 124.693 23.5482 125.995 24.2799C127.306 25.0205 128.312 26.0288 129.013 27.3138C129.722 28.5987 130.072 30.0531 130.072 31.6771C130.072 32.2393 130.036 32.8371 129.974 33.4618ZM126.256 28.1614C125.753 27.3495 125.079 26.7338 124.217 26.3144C123.355 25.895 122.403 25.6808 121.361 25.6808C119.861 25.6808 118.586 26.1538 117.526 27.1085C116.475 28.0633 115.865 29.3839 115.712 31.0704H127.01C127.01 29.9461 126.758 28.9735 126.256 28.1704V28.1614Z" fill="#141414"/>
<path d="M134.383 23.9764C135.379 22.2096 136.754 20.8355 138.478 19.8361C140.211 18.8367 142.124 18.3459 144.244 18.3459C146.722 18.3459 148.887 18.9438 150.737 20.1306C152.587 21.3173 153.934 23.0038 154.787 25.1899H151.231C150.602 23.8247 149.695 22.7807 148.5 22.049C147.315 21.3084 145.896 20.9426 144.244 20.9426C142.591 20.9426 141.226 21.3084 139.969 22.049C138.702 22.7807 137.714 23.8247 136.996 25.181C136.278 26.5284 135.918 28.1167 135.918 29.937C135.918 31.7573 136.278 33.3099 136.996 34.6573C137.714 36.0047 138.702 37.0576 139.969 37.7893C141.235 38.5299 142.654 38.8958 144.244 38.8958C145.833 38.8958 147.315 38.5299 148.5 37.8072C149.686 37.0844 150.593 36.0404 151.231 34.6752H154.787C153.934 36.8346 152.587 38.5121 150.737 39.6899C148.887 40.8678 146.722 41.4567 144.244 41.4567C142.133 41.4567 140.211 40.966 138.478 39.9844C136.745 39.0029 135.379 37.6287 134.383 35.8798C133.377 34.1309 132.883 32.1499 132.883 29.9459C132.883 27.7419 133.386 25.7521 134.383 23.9943V23.9764Z" fill="#141414"/>
<path d="M178.001 18.6404L169.415 41.2515H165.984L157.398 18.6404H160.569L167.717 38.1373L174.866 18.6404H178.001Z" fill="#141414"/>
<path d="M38.7859 16.2668C39.0104 17.3554 39.1272 18.4797 39.1272 19.6397V26.3409C39.7738 25.4665 40.2408 24.4671 40.4833 23.3874C41.085 20.6837 40.3486 18.1228 38.7859 16.2668ZM39.0014 10.7434C38.0674 8.78031 36.8011 7.00462 35.2744 5.48769C31.8617 2.09692 27.1378 0 21.9379 0C14.394 0 7.88287 4.39908 4.87429 10.7523C4.43423 11.6803 4.06602 12.644 3.78761 13.6434C3.32061 15.2674 3.07812 16.9717 3.07812 18.7385V30.8471C3.64392 30.9898 4.20073 31.1505 4.73958 31.3378V19.6397C4.73958 18.4886 4.85633 17.3554 5.08085 16.2668C5.21556 15.5708 5.39518 14.8926 5.6197 14.2323C5.94301 13.2508 6.36511 12.3138 6.85905 11.4215C9.7868 6.13908 15.4357 2.56092 21.9379 2.56092C26.6887 2.56092 30.9816 4.47046 34.0889 7.56677C35.2385 8.7 36.2264 10.0028 37.0077 11.4215C37.5016 12.3049 37.9148 13.2508 38.247 14.2323C38.8757 14.0092 39.4954 13.8129 40.0881 13.6434C39.8097 12.644 39.4415 11.6714 39.0014 10.7434Z" fill="#141414"/>
<path d="M29.8803 23.4052C31.2294 23.4052 32.3231 22.3185 32.3231 20.9781C32.3231 19.6377 31.2294 18.551 29.8803 18.551C28.5312 18.551 27.4375 19.6377 27.4375 20.9781C27.4375 22.3185 28.5312 23.4052 29.8803 23.4052Z" fill="#141414"/>
<path d="M13.9975 23.4052C15.3466 23.4052 16.4403 22.3185 16.4403 20.9781C16.4403 19.6377 15.3466 18.551 13.9975 18.551C12.6484 18.551 11.5547 19.6377 11.5547 20.9781C11.5547 22.3185 12.6484 23.4052 13.9975 23.4052Z" fill="#141414"/>
<path d="M37.019 14.6874C37.4321 14.5268 37.8452 14.3751 38.2493 14.2323C38.878 14.0092 39.4977 13.8129 40.0904 13.6434C40.7819 13.4381 41.4465 13.2686 42.0752 13.1258C41.5363 12.1621 40.9436 11.2431 40.2611 10.3865C39.83 10.5025 39.4169 10.6274 39.0037 10.7434C38.3122 10.9575 37.6476 11.1806 37.01 11.4215C35.4383 11.9926 34.0194 12.6351 32.7441 13.3221C28.568 15.5351 25.9097 18.2566 24.2123 20.9425C23.0628 22.7628 22.3533 24.5563 21.9402 26.1714C21.5181 24.5563 20.8176 22.7628 19.668 20.9425C17.9706 18.2566 15.3033 15.5351 11.1272 13.3221C9.85197 12.6351 8.44198 11.9926 6.86135 11.4215C6.23269 11.1806 5.56811 10.9575 4.87659 10.7523C3.94258 10.4578 2.96367 10.1901 1.93088 9.94922C1.21241 10.8326 0.565792 11.7517 0 12.7332C1.1226 12.9474 2.41584 13.2418 3.78991 13.6434C4.38264 13.8129 4.99334 14.0092 5.622 14.2323C6.02614 14.3751 6.43925 14.5268 6.85237 14.6874C6.18779 15.1246 5.58607 15.66 5.08315 16.2668C3.52048 18.1228 2.78406 20.6837 3.38577 23.3874C3.62825 24.4671 4.09526 25.4575 4.74188 26.332C5.92735 27.9649 7.71453 29.1428 9.7442 29.5443C14.0191 30.3831 17.8539 27.956 19.1741 24.3243C20.0542 25.6806 20.8265 27.1797 21.4372 28.8483C21.6169 29.348 21.7875 29.8566 21.9402 30.392C22.0839 29.8566 22.2545 29.348 22.4341 28.8483C23.0448 27.1797 23.8172 25.6806 24.6973 24.3243C26.0264 27.956 29.8613 30.3831 34.1271 29.5443C36.1568 29.1428 37.944 27.9649 39.1295 26.3409C39.7761 25.4665 40.2431 24.4671 40.4856 23.3874C41.0873 20.6837 40.3509 18.1228 38.7882 16.2668C38.2853 15.66 37.6836 15.1246 37.019 14.6874ZM12.5552 25.172C10.9027 24.8864 9.54662 23.5569 9.25923 21.9151C8.87306 19.7824 10.1214 17.8997 11.9714 17.2751C12.5911 17.6677 13.2108 18.096 13.8125 18.56C14.7286 19.2471 15.6087 20.0234 16.4439 20.88C16.7582 21.2012 17.0636 21.5403 17.3689 21.8883C16.9738 24.0209 14.8992 25.5824 12.5552 25.172ZM34.6211 21.9151C34.3247 23.5569 32.9686 24.8864 31.3251 25.172C28.9722 25.5824 26.9066 24.0209 26.5024 21.8883C26.8078 21.5314 27.1221 21.1923 27.4364 20.8711C28.2716 20.0145 29.1607 19.2471 30.0678 18.56C30.6695 18.096 31.2802 17.6677 31.8999 17.2751C33.75 17.8997 34.9983 19.7824 34.6211 21.9151Z" fill="#F7931E"/>
<path d="M40.0881 13.6433C39.4954 13.8128 38.8757 14.0092 38.247 14.2322C38.4716 14.8925 38.6512 15.5707 38.7859 16.2667C40.3486 18.1227 41.085 20.6836 40.4833 23.3873C40.2408 24.467 39.7738 25.4664 39.1272 26.3409V31.1593C33.8285 32.7833 29.8679 36.0492 28.4579 40.1538C26.8594 44.7849 28.8082 49.5498 30.8468 52.9584C28.2514 54.5289 25.2069 55.4301 21.9379 55.4301C18.4982 55.4301 15.301 54.4307 12.6158 52.6996C14.5915 49.3178 16.4057 44.6688 14.852 40.1538C13.4869 36.1919 9.75088 33.0153 4.73958 31.3378C4.20073 31.1504 3.64392 30.9898 3.07812 30.847V39.2615C3.07812 44.9187 5.60174 49.9959 9.59821 53.4313C10.1371 53.9042 10.7118 54.3415 11.3135 54.743C14.3401 56.7953 17.9953 57.9999 21.9379 57.9999C25.8804 57.9999 29.2303 56.8935 32.176 54.9929C32.7867 54.6092 33.3705 54.1809 33.9273 53.7347C38.1213 50.2904 40.7976 45.0882 40.7976 39.2615V18.7384C40.7976 16.9716 40.5551 15.2673 40.0881 13.6433ZM4.73958 38.3513V34.7107C8.48458 36.4775 11.3046 39.5024 12.3104 42.4202C13.4151 45.6236 12.2386 48.9252 10.8555 51.4058C7.11052 48.2738 4.73958 43.5892 4.73958 38.3513ZM39.1272 38.3513C39.1272 43.7587 36.5946 48.5861 32.634 51.7181C31.1702 49.2018 29.85 45.7664 30.9995 42.4202C32.0503 39.3685 35.1038 36.183 39.1272 34.4698V38.3513Z" fill="#141414"/>
<path d="M22.1822 37.9944C23.0551 37.9944 23.7628 37.2913 23.7628 36.424C23.7628 35.5566 23.0551 34.8535 22.1822 34.8535C21.3092 34.8535 20.6016 35.5566 20.6016 36.424C20.6016 37.2913 21.3092 37.9944 22.1822 37.9944Z" fill="#141414"/>
<path d="M22.1822 44.0086C23.0551 44.0086 23.7628 43.3055 23.7628 42.4381C23.7628 41.5708 23.0551 40.8677 22.1822 40.8677C21.3092 40.8677 20.6016 41.5708 20.6016 42.4381C20.6016 43.3055 21.3092 44.0086 22.1822 44.0086Z" fill="#141414"/>
<path d="M22.1822 50.0228C23.0551 50.0228 23.7628 49.3196 23.7628 48.4523C23.7628 47.585 23.0551 46.8818 22.1822 46.8818C21.3092 46.8818 20.6016 47.585 20.6016 48.4523C20.6016 49.3196 21.3092 50.0228 22.1822 50.0228Z" fill="#141414"/>
</g>
<defs>
<clipPath id="clip0_59_622">
<rect width="178" height="58" fill="white"/>
</clipPath>
</defs>
</svg>
